<svg xmlns="http://www.w3.org/2000/svg" viewBox="0 0 841.9 595.3">
    <g transform="translate(0.000000,302.000000) scale(0.100000,-0.100000)"
fill="#000000" stroke="none">
<path d="M2384 5110 c-1130 -81 -2072 -891 -2318 -1993 -80 -357 -80 -756 0
-1117 193 -868 839 -1582 1687 -1864 277 -93 517 -131 817 -131 413 1 760 82
1129 266 519 257 936 685 1175 1204 164 357 239 695 239 1085 0 297 -38 535
-129 807 -309 929 -1128 1605 -2094 1727 -152 19 -368 26 -506 16z m-455 -915
c35 -9 100 -34 145 -57 78 -40 105 -65 809 -767 l727 -726 0 -375 0 -375 252
-252 c208 -208 258 -253 280 -253 l28 0 0 -90 0 -90 -445 0 -445 0 0 90 0 90
292 0 293 0 -190 190 -190 190 -375 0 -375 0 -731 733 c-699 700 -732 735
-767 807 -56 115 -70 184 -64 320 6 139 28 210 99 316 80 120 215 214 354 248
78 19 224 19 303 1z m-399 -2895 l0 -90 -180 0 -180 0 0 90 0 90 180 0 180 0
0 -90z m530 0 l0 -90 -180 0 -180 0 0 90 0 90 180 0 180 0 0 -90z m520 0 l0
-90 -175 0 -175 0 0 90 0 90 175 0 175 0 0 -90z m530 0 l0 -90 -177 2 -178 3
-3 88 -3 87 181 0 180 0 0 -90z"/>
</g>
</svg>
